<?xml version="1.0" encoding="utf-8" ?>
<svg xmlns="http://www.w3.org/2000/svg" xmlns:xlink="http://www.w3.org/1999/xlink" width="32" height="32">
	<path fill="#FED700" transform="scale(0.0625 0.0625)" d="M438.501 101.181C442.908 109.682 447.03 121.434 449.748 130.694C475.191 217.367 446.703 309.307 375.136 364.401C288.374 431.191 164.088 423.548 87.7215 344.083C74.3751 330.195 63.443 314.951 54.0037 298.115C59.9212 294.436 71.2392 288.749 77.8273 285.86C85.3756 282.187 93.0108 278.043 100.633 274.251C103.887 271.98 107.686 270.208 111.207 268.366L129.696 258.855C143.1 252.003 156.306 244.685 169.815 238.053C174.377 236.905 194.352 225.359 199.673 222.696L321.956 160.787C325.474 158.495 329.394 156.721 333.137 154.833L351.443 145.563C364.567 138.835 377.416 131.406 390.813 125.22C397.334 122.344 409.008 116.575 415.083 112.84C421.81 109.579 431.857 103.447 438.501 101.181Z"/>
	<path fill="#FF4800" transform="scale(0.0625 0.0625)" d="M438.501 101.181C442.908 109.682 447.03 121.434 449.748 130.694C475.191 217.367 446.703 309.307 375.136 364.401C288.374 431.191 164.088 423.548 87.7215 344.083C74.3751 330.195 63.443 314.951 54.0037 298.115C59.9212 294.436 71.2392 288.749 77.8273 285.86C85.3756 282.187 93.0108 278.043 100.633 274.251C102.897 278.438 105.668 283.271 108.834 286.809C119.325 302.988 138.823 319.899 155.236 330.008C231.571 377.022 333.549 355.547 380.727 278.372C398.133 249.899 410.734 200.006 402.593 166.285C401.47 151.795 395.255 138.836 390.885 125.446L390.813 125.22C397.334 122.344 409.008 116.575 415.083 112.84C421.81 109.579 431.857 103.447 438.501 101.181Z"/>
	<path fill="#21FED5" fill-opacity="0.66666669" transform="scale(0.0625 0.0625)" d="M390.813 125.22C397.334 122.344 409.008 116.575 415.083 112.84C445.375 180.09 435.252 257.669 387.639 314.253C340.07 370.784 263.065 394.848 191.623 375.305C140.999 361.456 103.105 331.082 77.8273 285.86C85.3756 282.187 93.0108 278.043 100.633 274.251C102.897 278.438 105.668 283.271 108.834 286.809C119.325 302.988 138.823 319.899 155.236 330.008C231.571 377.022 333.549 355.547 380.727 278.372C398.133 249.899 410.734 200.006 402.593 166.285C401.47 151.795 395.255 138.836 390.885 125.446L390.813 125.22Z"/>
	<path fill="#FF4800" transform="scale(0.0625 0.0625)" d="M169.815 238.053C174.377 236.905 194.352 225.359 199.673 222.696L321.956 160.787C339.465 206.813 322.517 258.551 274.702 276.697C240.109 289.825 197.822 278.496 176.092 248.15C174.857 246.426 170.362 238.588 169.815 238.053Z"/>
	<path fill="#FE218B" transform="scale(0.0625 0.0625)" d="M323.671 264.605C342.66 262.916 349.5 276.729 336.88 284.112C328.264 287.229 319.391 275.519 317.95 268.281C317.211 264.565 321.023 264.837 323.671 264.605Z"/>
	<path fill="#FE218B" transform="scale(0.0625 0.0625)" d="M363.316 178.789C377.59 178.08 378.632 200.471 358.451 197.391C354.393 196.533 350.641 194.97 347.39 192.348C349.76 185.661 356.556 180.418 363.316 178.789Z"/>
	<path fill="#FE218B" transform="scale(0.0625 0.0625)" d="M353.121 226.847C371.71 224.335 370.685 246.839 357.276 246.211C351.491 245.095 343.738 237.605 342.587 232.169C341.636 227.671 350.279 227.144 353.121 226.847Z"/>
	<path fill="#FE218B" transform="scale(0.0625 0.0625)" d="M245.917 306.274C258.622 305.56 261.632 325.498 249.598 328.671C236.673 329.72 234.193 309.759 245.917 306.274Z"/>
	<path fill="#FE218B" transform="scale(0.0625 0.0625)" d="M200.141 299.09C213.371 299.989 210.77 318.122 197.888 320.751C184.11 320.823 187.596 300.409 200.141 299.09Z"/>
	<path fill="#FE218B" transform="scale(0.0625 0.0625)" d="M160.261 270.279C175.353 268.622 171.366 287.935 160.261 290.712C145.016 292.68 147.343 273.489 160.261 270.279Z"/>
	<path fill="#FE218B" transform="scale(0.0625 0.0625)" d="M294.894 294.603C310.21 293.965 300.563 313.88 290.384 313.861C277.636 311.673 278.967 295.567 294.894 294.603Z"/>
</svg>
