<?xml version="1.0" encoding="utf-8" ?>
<svg xmlns="http://www.w3.org/2000/svg" xmlns:xlink="http://www.w3.org/1999/xlink" width="32" height="32">
	<path fill="#D84100" transform="scale(0.0625 0.0625)" d="M206.545 154.237L205.982 154.244C162.225 154.655 129.008 132.495 112.437 92.9052C111.133 89.79 107.688 83.571 111.093 80.6448C114.918 77.3565 127.513 76.0527 132.582 76.2386C139.48 74.3374 154.351 77.9806 161.244 80.5817C189.971 91.4205 201.54 111.969 213.265 137.738C225.547 106.043 248.404 80.2071 284.291 76.5394C290.04 75.9519 317.969 75.5692 318.387 83.9394C318.625 88.7137 309.833 105.787 306.93 110.462C286.438 143.455 254.873 151.945 217.74 154.237C219.245 160.044 220.335 165.859 221.352 171.766C235.399 171.392 242.141 163.267 254.975 161.55C275.88 158.754 299.495 166.669 316.045 179.471C339.236 197.411 348.477 218.698 352.016 246.538C374.498 235.738 380.399 228.83 401.599 248.728C445.253 289.702 449.465 357.453 408.205 401.468C383.938 426.195 346.905 439.453 312.524 433.569C288.263 429.417 256.935 412.468 242.326 391.824C230.157 396.978 217.134 398.693 204.087 396.201C186.224 392.79 187.927 393.793 170.003 395.47C137.459 398.516 119.584 380.513 103.62 355.128C74.9769 309.58 58.7525 239.13 96.568 193.948C113.809 173.349 151.263 153.581 178.67 161.34C189.443 164.389 198.54 172.8 210.322 171.766C209.405 165.785 207.764 160.134 206.545 154.237ZM131.404 87.015C128.193 87.2068 125.347 87.5617 122.253 88.4464C136.516 116.908 151.217 135.038 185.153 141.036C188.371 141.604 191.789 141.928 194.939 142.776L203.26 142.776C195.541 121.976 183.535 102.499 162.532 92.9074C154.346 89.169 140.294 85.2113 131.404 87.015ZM287.225 87.015C260.108 89.8955 239.866 106.959 228.06 130.639C235.845 125.883 250.166 114.411 256.957 112.666C258.779 113.166 260.387 113.649 261.366 115.417C265.072 122.118 254.809 126.377 250.478 129.227L238.562 137.069C235.724 138.914 232.844 140.593 230.243 142.776C255.754 138.376 278.955 131.812 294.466 109.763C298.613 103.868 303.612 95.3066 305.738 88.4464C300.02 86.9839 293.103 86.4986 287.225 87.015ZM162.12 171.244C104.343 178.515 79.6485 225.003 86.7325 279.967C90.323 307.826 102.127 334.661 118.416 357.404C131.849 376.16 145.595 387.442 170.495 384.212C187.32 382.03 189.236 382.088 205.339 385.419C215.383 387.497 226.4 386.278 236.007 382.769C229.314 371.615 223.472 359.668 221.352 346.697C219.114 336.183 218.227 330.95 224.31 321.597C247.342 286.184 306.491 275.802 341.23 252.656C341.223 210.267 306.183 171.567 262.882 171.702C250.32 171.741 249.469 174.869 239.162 178.978C225.511 184.42 207.195 185.12 193.364 179.774C180.746 174.897 177.908 170.281 162.12 171.244ZM376.54 247.317C367.839 248.769 352.554 259.101 344.527 263.947C331.946 271.543 318.897 278.014 305.293 283.587C280.648 293.685 250.851 303.876 234.681 326.555C231.266 331.344 230.062 333.755 231.091 339.683C236.594 371.381 259.358 402.324 289.375 415.092C336.942 436.642 396.204 415.997 417.725 367.787C435.221 328.593 424.282 282.1 391.736 254.502C387.318 250.756 382.663 246.871 376.54 247.317Z"/>
	<path fill="#D84100" transform="scale(0.0625 0.0625)" d="M128.124 261.554C120.836 261.926 121.721 255.233 122.791 249.939C127.3 227.615 139.564 208.034 157.765 194.242C160.443 192.212 163.15 190.128 166.453 189.277C171.15 189.255 174.264 193.866 171.258 197.805C168.878 200.922 164.351 203.122 161.261 205.648C148.517 216.067 138.647 231.376 134.616 247.267C133.266 252.588 134.346 259.52 128.124 261.554Z"/>
	<path fill="#D84100" transform="scale(0.0625 0.0625)" d="M129.731 291.684C120.624 292.462 118.881 274.275 125.781 271.53C135.153 270.726 136.759 288.656 129.731 291.684Z"/>
	<path fill="#D84100" transform="scale(0.0625 0.0625)" d="M315.306 403.502C267.833 395.166 233.478 349.783 272.002 310.304C290.448 291.402 319.368 278.818 345.833 278.491C363.974 276.7 384.203 285.243 394.948 299.876C416.43 329.131 400.101 370.108 373.34 389.693C356.855 401.758 335.39 406.563 315.306 403.502ZM343.246 289.517C319.041 291.5 292.953 302.482 277.039 321.28C260.477 340.845 263.697 361.447 283.121 377.682C293.997 386.771 304.656 390.08 318.057 393.276C340.569 393.538 357.296 391.371 374.783 374.373C392.709 356.948 402.707 322.817 383.066 302.853C372.325 291.935 357.941 289.263 343.246 289.517Z"/>
	<path fill="#D84100" transform="scale(0.0625 0.0625)" d="M332.987 317.477C324.57 318.243 322.61 306.661 330.071 303.288C339.503 302.564 339.723 314.069 332.987 317.477Z"/>
	<path fill="#D84100" transform="scale(0.0625 0.0625)" d="M293.669 324.727C294.335 321.977 295.576 320.2 298.271 319.017C305.424 318.641 315.994 330.993 305.738 333.72C300.806 333.421 295.002 329.571 293.669 324.727Z"/>
	<path fill="#D84100" transform="scale(0.0625 0.0625)" d="M360.354 338.794C352.675 340.069 349.443 330.381 362.469 325.753C370.791 325.365 372.017 334.567 360.354 338.794Z"/>
	<path fill="#D84100" transform="scale(0.0625 0.0625)" d="M294.789 364.275C288.503 364.212 282.491 355.037 298.271 351.297C305.354 350.309 308.902 359.519 294.789 364.275Z"/>
	<path fill="#D84100" transform="scale(0.0625 0.0625)" d="M364.972 367.674C357.487 368.352 347.862 357.784 358.127 354.276C365.852 353.701 374.579 363.931 364.972 367.674Z"/>
	<path fill="#D84100" transform="scale(0.0625 0.0625)" d="M330.071 381.598C320.866 382.692 319.792 367.713 327.299 364.275C336.011 363.742 336.598 378.173 330.071 381.598Z"/>
</svg>
